<?xml version="1.0" encoding="utf-8"?>
<!-- Generator: Adobe Illustrator 27.5.0, SVG Export Plug-In . SVG Version: 6.00 Build 0)  -->
<svg version="1.1" xmlns="http://www.w3.org/2000/svg" xmlns:xlink="http://www.w3.org/1999/xlink" x="0px" y="0px"
	 viewBox="0 0 500 500" style="enable-background:new 0 0 500 500;" xml:space="preserve">
<g id="BACKGROUND">
	<rect style="fill:#FFFFFF;" width="500" height="500"/>
</g>
<g id="OBJECTS">
	<g>
		<linearGradient id="SVGID_1_" gradientUnits="userSpaceOnUse" x1="120.0971" y1="381.8541" x2="207.9981" y2="94.6658">
			<stop  offset="0" style="stop-color:#FF9700"/>
			<stop  offset="1" style="stop-color:#FFCE00"/>
		</linearGradient>
		<path style="fill:url(#SVGID_1_);" d="M165.728,247.643c-0.122,0.447-0.182,0.909-0.202,1.37c-0.019,0.43-0.015,0.757-0.024,1.14
			l-0.035,2.221l-0.07,4.441l-0.281,17.764l-0.542,57.553h-9.622v-58.49c0-16.991-4.623-33.598-13.311-48.03l1.293,0.885
			l2.191,1.304c0.367,0.213,0.724,0.443,1.1,0.641l1.134,0.58c2.989,1.613,6.171,2.825,9.382,3.863l2.438,0.693
			c0.807,0.25,1.646,0.375,2.467,0.567c1.64,0.4,3.318,0.595,4.981,0.843c0.831,0.128,1.676,0.148,2.513,0.227
			c0.839,0.054,1.673,0.16,2.515,0.143c1.68,0.015,3.357,0.066,5.031-0.051c6.695-0.372,13.289-1.97,19.373-4.65
			c-6.204,2.392-12.81,3.659-19.405,3.715c-1.649,0.038-3.294-0.091-4.936-0.182c-0.822-0.021-1.636-0.164-2.452-0.256
			c-0.813-0.116-1.634-0.172-2.439-0.336c-1.611-0.32-3.23-0.583-4.804-1.048c-0.787-0.225-1.593-0.381-2.363-0.661l-2.325-0.781
			c-3.056-1.151-6.058-2.457-8.849-4.139l-1.059-0.605c-0.351-0.205-0.682-0.444-1.024-0.664l-2.034-1.342l-1.942-1.469
			c-0.321-0.248-0.653-0.48-0.963-0.741l-0.921-0.794c-2.352-1.939-4.452-4.154-6.42-6.46c-0.928-1.109-1.816-2.253-2.658-3.433
			c-0.048-0.067-0.096-0.134-0.143-0.202c-0.327-0.463-0.642-0.936-0.955-1.409c-0.196-0.299-0.393-0.598-0.584-0.9
			c-0.283-0.446-0.562-0.895-0.833-1.349c-0.068-0.112-0.136-0.224-0.204-0.337c-4.84-8.261-7.619-17.875-7.619-28.142
			c0-21.002,11.608-39.285,28.752-48.808v49.901l27.05,15.617l27.05-15.617v-49.901c17.145,9.522,28.752,27.806,28.752,48.808
			c0,13.73-4.968,26.293-13.191,36.014l0.014,0.002c0,0-0.272,0.331-0.754,0.943c-12.92,16.393-19.894,36.686-19.894,57.559v58.49
			h-29.879l-0.542-57.553l-0.281-17.764l-0.07-4.441l-0.035-2.221c-0.003-0.356-0.017-0.77-0.012-1.08
			c0.004-0.277,0.027-0.555,0.093-0.824c0.235-1.082,0.986-2.062,2.002-2.566c0.503-0.257,1.062-0.403,1.636-0.422l2.207-0.038
			l4.441-0.07l2.221-0.035c0.354-0.002,0.777-0.02,1.074-0.009c0.297,0.005,0.596,0.035,0.884,0.112
			c1.163,0.265,2.195,1.093,2.724,2.186c0.269,0.543,0.418,1.145,0.43,1.762l0.035,2.221l0.281,17.764l0.561,58.775l0.561-58.775
			l0.281-17.764l0.035-2.221c0.012-0.865-0.171-1.741-0.533-2.536c-0.713-1.599-2.163-2.856-3.88-3.313
			c-0.424-0.125-0.867-0.188-1.307-0.209c-0.442-0.026-0.76-0.017-1.146-0.027l-2.221-0.035l-4.441-0.07l-2.234-0.032
			c-0.907-0.001-1.821,0.202-2.649,0.591C167.475,244.301,166.188,245.842,165.728,247.643z"/>
		<g>
			
				<linearGradient id="SVGID_00000013876384448322828390000012816152354267041418_" gradientUnits="userSpaceOnUse" x1="215.3208" y1="367.1965" x2="34.821" y2="145.7658">
				<stop  offset="0" style="stop-color:#007BC6"/>
				<stop  offset="1" style="stop-color:#43B7FF"/>
			</linearGradient>
			<path style="fill:url(#SVGID_00000013876384448322828390000012816152354267041418_);" d="M142.934,312.664
				c-10.801-2.155-20.85-6.404-29.697-12.308L95.908,310.57l-15.987-15.988l10.214-17.328c-5.904-8.848-10.153-18.896-12.308-29.697
				l-19.465-5.028v-22.61l19.465-5.029c2.155-10.801,6.404-20.85,12.308-29.697l-10.214-17.328l15.987-15.988l17.328,10.215
				c2.409-1.603,4.906-3.092,7.481-4.442c-2.584,6.754-3.968,14.016-3.968,21.472c0,2.383,0.14,4.757,0.429,7.105
				c-12.019,11.239-19.527,27.244-19.527,44.993c0,31.082,23.013,56.784,52.921,61.007v39.903h-2.611L142.934,312.664z"/>
			
				<linearGradient id="SVGID_00000183952759094837002310000016646266164630049962_" gradientUnits="userSpaceOnUse" x1="165.1521" y1="256.2931" x2="91.3417" y2="219.3878">
				<stop  offset="0" style="stop-color:#073E70"/>
				<stop  offset="1" style="stop-color:#045B9B"/>
			</linearGradient>
			<path style="fill:url(#SVGID_00000183952759094837002310000016646266164630049962_);" d="M107.472,231.219
				c0-12.755,4.608-24.424,12.247-33.438c1.755,12.436,7.962,19.954,13.353,25.375c3.755,3.776,6.936,8.102,9.183,12.93
				c1.129,2.425,2.146,4.898,3.051,7.411c0.337,0.936,0.632,1.885,0.889,2.846c2.55,9.56,4.379,21.967,4.379,35.949
				C126.105,278.157,107.472,256.87,107.472,231.219z"/>
		</g>
	</g>
</g>
<g id="TEXTS">
	<g>
		<text transform="matrix(1 0 0 1 255.2648 230.1931)"><tspan x="0" y="0" style="fill:#1A2228; font-family:'FiraSans-Black'; font-size:75.0468px;">Logo</tspan><tspan x="0" y="70.41" style="fill:#1A2228; font-family:'FiraSans-Black'; font-size:75.0468px;">Name</tspan></text>
	</g>
	<g>
		<text transform="matrix(1 0 0 1 255.2638 327.2185)" style="fill:#045B9B; font-family:'Solway-Regular'; font-size:18.6769px;">Engineering company</text>
	</g>
</g>
</svg>
