<?xml version="1.0" encoding="utf-8"?>
<!-- Generator: Adobe Illustrator 27.5.0, SVG Export Plug-In . SVG Version: 6.00 Build 0)  -->
<svg version="1.1" id="Layer_1" xmlns="http://www.w3.org/2000/svg" xmlns:xlink="http://www.w3.org/1999/xlink" x="0px" y="0px"
	 viewBox="0 0 500 500" style="enable-background:new 0 0 500 500;" xml:space="preserve">
<rect style="fill:#FFFFFF;" width="500" height="500"/>
<g>
	<path style="fill:#FE646F;" d="M112.903,341.731l123.377-200.448c5.997-9.744,20.191-9.703,26.245,0.075l124.527,201.158
		c6.371,10.292-0.981,23.518-13.055,23.484l-247.904-0.71C114.019,365.255,106.59,351.987,112.903,341.731z"/>
	<path style="fill:#FD4755;" d="M254.927,135.033c-3.032,1.143-5.752,3.257-7.658,6.341l-124.305,201.73
		c-5.093,8.264-1.334,18.451,6.583,22.21l-3.448-0.017c-12.075-0.035-19.508-13.305-13.201-23.562l123.387-200.448
		C240.409,134.583,248.378,132.521,254.927,135.033z"/>
	<path style="fill:#FFE177;" d="M254.373,190.231l78.577,134.268c2.382,4.07-0.553,9.188-5.269,9.188H170.528
		c-4.715,0-7.65-5.118-5.269-9.188l78.577-134.268C246.194,186.202,252.016,186.202,254.373,190.231z"/>
	<path style="fill:#EFCE67;" d="M250.859,187.467c-0.433,0.416-0.832,0.884-1.143,1.438l-81.548,139.343
		c-0.883,1.507-1.057,3.136-0.71,4.626c-2.755-1.611-4.002-5.301-2.2-8.385l78.585-134.267
		C245.367,187.64,248.313,186.704,250.859,187.467z"/>
	<g>
		<path style="fill:#FE646F;" d="M251.015,297.942h-3.821c-2.179,0-4.009-1.64-4.247-3.806l-5.794-52.712
			c-0.278-2.529,1.703-4.739,4.247-4.739h15.408c2.544,0,4.525,2.21,4.247,4.739l-5.794,52.712
			C255.024,296.303,253.195,297.942,251.015,297.942z"/>
		<circle style="fill:#FE646F;" cx="249.105" cy="312.419" r="5.151"/>
	</g>
	<g>
		<path style="fill:#FD4755;" d="M249.402,297.946h-2.2c-2.183,0-4.019-1.646-4.245-3.811l-5.804-52.702
			c-0.277-2.529,1.698-4.747,4.244-4.747h2.218c-2.547,0-4.522,2.218-4.244,4.747l5.786,52.702
			C245.4,296.3,247.237,297.946,249.402,297.946z"/>
		<path style="fill:#FD4755;" d="M250.217,317.454c-0.364,0.087-0.728,0.121-1.109,0.121c-2.841,0-5.145-2.304-5.145-5.163
			c0-2.841,2.304-5.145,5.145-5.145c0.381,0,0.745,0.035,1.109,0.121c-2.322,0.502-4.054,2.564-4.054,5.024
			C246.162,314.89,247.895,316.951,250.217,317.454z"/>
	</g>
</g>
</svg>
